<svg xmlns="http://www.w3.org/2000/svg" viewBox="0 0 231.233 231.233" width="100" height="100">
  <path fill="#fff" d="M230.505 102.78c-.365-3.25-4.156-5.695-7.434-5.695-10.594 0-19.996-6.218-23.939-15.842-4.025-9.855-1.428-21.346 6.465-28.587a6.425 6.425 0 0 0 .705-8.721 114.457 114.457 0 0 0-18.316-18.498c-2.633-2.112-6.502-1.818-8.787.711-6.891 7.632-19.27 10.468-28.836 6.477-9.951-4.187-16.232-14.274-15.615-25.101a6.416 6.416 0 0 0-5.676-6.755c-8.637-1-17.35-1.029-26.012-.068a6.437 6.437 0 0 0-5.723 6.617c.375 10.721-5.977 20.63-15.832 24.667-9.451 3.861-21.744 1.046-28.621-6.519a6.444 6.444 0 0 0-8.725-.731 114.933 114.933 0 0 0-18.703 18.492 6.432 6.432 0 0 0 .689 8.784C34.194 59.3 36.789 70.89 32.61 80.86c-3.99 9.505-13.859 15.628-25.156 15.628-3.666-.118-6.275 2.345-6.68 5.679a115.898 115.898 0 0 0-.049 26.289c.365 3.264 4.268 5.688 7.582 5.688 10.07-.256 19.732 5.974 23.791 15.841 4.039 9.855 1.439 21.341-6.467 28.592-2.473 2.273-2.789 6.07-.701 8.709a114.863 114.863 0 0 0 18.287 18.505 6.43 6.43 0 0 0 8.801-.697c6.918-7.65 19.295-10.481 28.822-6.482 9.98 4.176 16.258 14.262 15.645 25.092a6.417 6.417 0 0 0 5.672 6.755c4.42.517 8.863.773 13.32.773 4.23 0 8.461-.231 12.692-.702a6.434 6.434 0 0 0 5.721-6.621c-.387-10.716 5.979-20.626 15.822-24.655 9.514-3.886 21.752-1.042 28.633 6.512a6.457 6.457 0 0 0 8.725.73 115.085 115.085 0 0 0 18.703-18.493 6.422 6.422 0 0 0-.689-8.788c-8.047-7.284-10.656-18.879-6.477-28.839 3.928-9.377 13.43-15.673 23.65-15.673l1.43.038c3.318.269 6.367-2.286 6.768-5.671a115.39 115.39 0 0 0 .05-26.29zm-114.889 79.49c-36.813 0-66.654-29.841-66.654-66.653s29.842-66.653 66.654-66.653 66.654 29.841 66.654 66.653c0 12.495-3.445 24.182-9.428 34.176l-29.186-29.187a40.761 40.761 0 0 0 3.228-15.957c0-10.915-4.251-21.176-11.97-28.893-7.717-7.717-17.978-11.967-28.891-11.967-3.642 0-7.267.484-10.774 1.439a4.628 4.628 0 0 0-3.201 3.224c-.418 1.574.053 3.187 1.283 4.418 0 0 14.409 14.52 19.23 19.34.505.505.504 1.71.433 2.144l-.045.317c-.486 5.3-1.423 11.662-2.196 14.107-.104.103-.202.19-.308.296-.111.111-.213.218-.32.328-2.477.795-8.937 1.743-14.321 2.225l.001-.029-.242.061a2.095 2.095 0 0 1-.229.011c-.582 0-1.438-.163-2.216-.94-5.018-5.018-18.862-18.763-18.862-18.763-1.242-1.238-2.516-1.498-3.365-1.498-1.979 0-3.751 1.43-4.309 3.481-3.811 14.103.229 29.273 10.546 39.591 7.719 7.718 17.981 11.968 28.896 11.968a40.77 40.77 0 0 0 15.956-3.228l29.503 29.503a66.317 66.317 0 0 1-35.867 10.486z"/>
</svg>