<svg xmlns="http://www.w3.org/2000/svg" width="62" height="62" viewBox="0 0 62 62" xmlns:xlink="http://www.w3.org/1999/xlink">
  <defs>
    <polygon id="a" points=".05 .152 61.237 .152 61.237 60.954 .05 60.954 .05 .152"/>
  </defs>
  <g fill="none" fill-rule="evenodd" transform="translate(-20 -19)">
    <g transform="rotate(15 8.6 84.118)">
      <g transform="translate(10.46 9.512)">
        <mask id="b" fill="white">
          <use xlink:href="#a"/>
        </mask>
        <path fill="#FFFFFF" d="M30.6437114,0.152392555 C13.747449,0.152392555 0.0503754929,13.7632626 0.0503754929,30.5531872 C0.0503754929,47.3431118 13.747449,60.9539819 30.6437114,60.9539819 C47.5399738,60.9539819 61.2370473,47.3431118 61.2370473,30.5531872 C61.2370473,13.7632626 47.5399738,0.152392555 30.6437114,0.152392555 M30.6437114,2.02211398 C38.3129584,2.02211398 45.5235072,4.98987495 50.946417,10.3788872 C56.3695601,15.7676675 59.3561172,22.9328362 59.3561172,30.5538163 C59.3561172,38.1747964 56.3695601,45.3399651 50.946417,50.7287454 C45.5235072,56.1177577 38.3129584,59.0855187 30.6437114,59.0855187 C22.9744644,59.0855187 15.7639156,56.1177577 10.3410058,50.7287454 C4.91786264,45.3399651 1.93130557,38.1747964 1.93130557,30.5538163 C1.93130557,22.9328362 4.91786264,15.7676675 10.3410058,10.3788872 C15.7639156,4.98987495 23.2981375,1.93595879 30.9673845,1.93595879" mask="url(#b)"/>
      </g>
      <g fill="#FFFFFF" transform="rotate(24 12.295 59.983)">
        <path d="M59.6892352 37.6643821C58.6168583 39.2280801 57.3986455 40.6388599 56.0626598 41.888264 56.0925746 41.7553478 56.122178 41.6232205 56.1514708 41.4918751 58.1640875 32.4675449 58.2084608 31.1963265 58.9144378 30.9215787 59.6204148 30.6468309 61.2729993 31.325477 57.1567826 21.1038305 48.3809128-.68895741 25.7417686.815227691 13.5976592 11.2554189 14.2412144 9.45459645 15.1510019 7.760703 16.3849335 6.14707214 19.0690158 2.63705777 19.6963365 3.1354004 23.6865816 1.11751908 25.8891243.124585275 28.9054386.315520142 30.0058786.319405958 46.9021409.378607505 59.7488117 13.3709343 59.6892352 30.1606303 59.6809543 32.5124632 60.2058716 35.4675247 59.6892352 37.6643821zM1.48937516 21.7991318C2.56175209 20.2354338 3.92031354 17.2080006 5.25629922 15.9585965-.68605631 28.2373468 4.10605368 41.8862822 13.7364347 50.0776681 23.3668158 58.269054 37.7048469 55.3861593 46.1478051 49.3890035 45.4977542 51.4034562 45.1947107 52.0345922 44.0057111 53.9066411 41.4425416 57.9421752 37.3012336 59.5045818 34.6143686 59.8965296 33.5436018 60.0053325 31.7821782 59.2659982 30.6817382 59.2621124 13.7854759 59.2029108.136707616 45.5440395.196284113 28.7543435.204565015 26.4025106.972738825 23.9959892 1.48937516 21.7991318z"/>
      </g>
    </g>
    <g fill="#FFFFFF" transform="rotate(5 -350.62 388.512)">
      <path d="M3.56603964,16.0612476 C3.47072206,16.1604466 3.76830068,16.843941 4.14362893,17.6367586 C4.51895717,18.4295763 5.40138173,18.5510467 5.40138173,18.5510467 C5.40138173,18.5510467 3.91321342,19.0045777 3.4116641,18.3781835 C2.91011478,17.7517894 2.30488619,16.8809562 1.95667051,16.8823163 C1.60845483,16.8836765 1.49751273,16.9756266 1.04007332,16.7032992 C0.582633917,16.4309718 -0.313866668,13.6656515 0.525573506,11.9561401 C1.36501368,10.2466288 7.06197399,6.98690005 7.06197399,6.98690005 C7.06197399,6.98690005 6.99625267,4.22280605 7.52176957,3.60540285 C8.80814867,2.09410116 12.2581547,0.835226951 15.5813734,0.362092035 C18.9045922,-0.11104288 29.4072958,0.681889645 29.4072958,0.681889645 C29.4072958,0.681889645 28.1319084,3.36573637 27.5513524,3.6280277 C26.9707965,3.89031903 25.1459508,4.23794432 25.1459508,4.23794432 C25.1459508,4.23794432 30.362281,8.07714419 30.1696438,12.5241204 C29.9770066,16.9710967 27.3084615,22.7300972 22.9828346,25.7964174 C22.9828346,25.7964174 21.557219,25.6909755 17.7177613,25.5056808 C13.8783036,25.3203862 10.1422951,26.1558417 9.48929032,25.6720001 C8.8362855,25.1881584 6.87136784,21.1046403 7.00789532,21.1287138 C7.10594141,21.146002 9.05218323,23.9232417 10.7415693,23.7782509 C12.4309554,23.6332601 14.2338997,23.1861565 14.7168797,22.7158741 C15.3796223,22.0705549 16.1970159,20.3000066 16.3559058,19.6724771 C16.9784355,17.2138217 13.3250826,13.8698586 13.3250826,13.8698586 C13.3250826,13.8698586 13.4096999,14.8188785 13.4825063,15.6354332 C13.5553126,16.4519878 12.86843,17.566561 12.86843,17.566561 C12.86843,17.566561 12.294666,15.5244861 11.1048764,15.016689 C9.91508682,14.5088918 4.72025445,14.8600323 3.56603964,16.0612476 Z M11.6487811,6.85471569 L13.8492525,6.85471569 C14.7086501,6.85471569 16.5063567,6.16609158 16.5670896,5.9431719 C16.6278226,5.72025221 15.4854645,5.65146916 14.6983542,5.65146916 C12.6777481,5.65146916 11.6487811,6.85471569 11.6487811,6.85471569 Z"/>
      <path d="M25.7035001,4.36103181 C25.7035001,4.36103181 29.6993647,7.18368447 30.3752005,11.1719636 C31.0298495,15.0352139 28.2345467,20.9372539 26.248191,23.1233701 C24.2618353,25.3094863 23.3703539,25.9011554 23.3703539,25.9011554 C23.3703539,25.9011554 25.9913926,26.4924123 28.6684562,29.3124181 C31.3455197,32.1324239 35.1533003,43.8164286 15.3519918,44.3942592 C15.0133061,44.4041426 34.5011744,48.3889485 42.2391901,35.8045036 C49.9772059,23.2200587 48.0629042,30.1504397 49.0157095,22.9501154 C49.9685147,15.749791 49.2245239,10.709469 47.856834,9.65261924 C47.5576432,9.42142676 43.7735678,4.77374349 36.723722,3.99123603 C29.6738762,3.20872858 25.7035001,4.36103181 25.7035001,4.36103181 Z"/>
    </g>
  </g>
</svg>
