<svg xmlns="http://www.w3.org/2000/svg" width="162" height="17" viewBox="0 0 162 17">
  <path fill="#FFFFFF" fill-rule="evenodd" d="M6.282,4.29 C7.236,5.478 8.118,6.612 8.928,7.692 C9.576,6.468 10.08,5.154 10.476,3.75 L12.168,4.038 C11.628,5.982 10.926,7.71 10.062,9.24 C11.106,10.752 12.006,12.138 12.744,13.398 L11.196,14.46 C10.548,13.308 9.828,12.12 9,10.896 C7.92,12.39 6.66,13.686 5.22,14.766 L4.068,13.308 C5.598,12.156 6.894,10.824 7.938,9.312 C7.002,7.98 5.994,6.594 4.878,5.154 L6.282,4.29 Z M2.682,0.852 L14.652,0.852 L14.652,8.214 C14.652,10.968 14.724,12.732 14.904,13.506 C15.048,14.262 15.228,14.658 15.444,14.658 C15.606,14.658 15.75,13.938 15.858,12.516 L17.388,13.254 C17.154,14.622 16.902,15.558 16.632,16.026 C16.326,16.458 15.984,16.692 15.624,16.692 C14.688,16.692 14.004,16.116 13.572,14.982 C13.122,13.866 12.906,11.616 12.906,8.214 L12.906,2.508 L4.392,2.508 L4.392,7.98 C4.356,11.508 3.618,14.478 2.196,16.872 L0.756,15.702 C1.98,13.65 2.628,11.076 2.682,7.98 L2.682,0.852 Z M28.818,7.17 C29.916,8.7 30.762,10.032 31.356,11.184 L29.88,12.21 C29.304,10.95 28.494,9.546 27.486,7.998 L28.818,7.17 Z M28.188,0.15 L29.862,0.366 C29.7,1.194 29.502,1.968 29.286,2.706 L34.704,2.706 C34.704,9.078 34.614,13.002 34.434,14.478 C34.218,15.972 33.318,16.728 31.734,16.728 C31.284,16.728 30.51,16.692 29.43,16.62 L28.998,15 C29.934,15.054 30.744,15.09 31.428,15.09 C32.184,15.09 32.634,14.64 32.76,13.758 C32.868,12.822 32.94,9.69 32.976,4.344 L28.692,4.344 C28.098,5.748 27.342,7.026 26.442,8.142 L25.326,6.72 C26.73,4.92 27.684,2.742 28.188,0.15 Z M25.056,2.994 L26.316,3.966 C25.668,4.884 24.876,5.676 23.976,6.36 C25.434,8.16 26.19,10.374 26.244,13.002 C26.244,14.37 26.028,15.324 25.596,15.828 C25.092,16.44 23.94,16.746 22.158,16.746 L21.816,16.746 L21.24,15.198 L21.96,15.198 C23.094,15.18 23.796,15.054 24.066,14.838 C24.408,14.514 24.588,13.902 24.588,13.002 C24.588,12.588 24.552,12.192 24.516,11.832 C23.238,13.092 21.618,14.136 19.674,14.964 L18.828,13.506 C21.114,12.606 22.896,11.49 24.192,10.122 C24.084,9.762 23.958,9.42 23.832,9.096 C22.752,10.176 21.348,11.058 19.62,11.778 L18.792,10.338 C20.664,9.672 22.122,8.826 23.202,7.818 C23.058,7.584 22.914,7.368 22.77,7.17 C21.834,7.71 20.808,8.16 19.692,8.52 L19.026,7.062 C19.548,6.9 20.034,6.72 20.502,6.522 C20.178,6.036 19.782,5.532 19.35,5.01 L20.61,4.218 C21.114,4.83 21.528,5.37 21.852,5.856 C22.212,5.64 22.536,5.442 22.824,5.226 C22.536,4.812 22.23,4.38 21.888,3.948 L23.13,3.174 C23.436,3.57 23.706,3.93 23.94,4.29 C24.354,3.858 24.732,3.426 25.056,2.994 Z M24.552,0.204 L25.524,1.482 C24.138,2.436 22.14,3.21 19.548,3.822 L18.684,2.346 C21.258,1.806 23.22,1.086 24.552,0.204 Z M54.72,4.74 L56.196,4.74 L56.196,0.33 L57.852,0.33 L57.852,4.74 L59.31,4.74 L59.31,6.36 L57.852,6.36 L57.852,11.31 L59.148,10.554 L59.148,12.21 C57.834,13.002 56.43,13.65 54.936,14.19 L54.504,12.57 C55.08,12.426 55.638,12.246 56.196,12.048 L56.196,6.36 L54.72,6.36 L54.72,4.74 Z M61.704,8.088 C61.596,11.652 60.768,14.496 59.202,16.656 L57.96,15.558 C59.292,13.722 59.994,11.184 60.066,7.944 L60.066,2.85 L65.25,2.85 C65.214,2.022 65.214,1.158 65.214,0.258 L66.798,0.258 C66.798,1.194 66.816,2.058 66.852,2.85 L70.758,2.85 L70.758,4.416 L66.906,4.416 C66.996,6.558 67.158,8.232 67.392,9.42 C67.428,9.618 67.464,9.798 67.5,9.96 C68.04,8.754 68.49,7.386 68.832,5.874 L70.218,6.468 C69.678,8.682 68.958,10.572 68.058,12.138 C68.202,12.642 68.364,13.056 68.544,13.38 C68.94,14.172 69.246,14.586 69.444,14.586 C69.624,14.586 69.786,13.776 69.966,12.174 L71.37,12.966 C70.992,15.414 70.452,16.656 69.75,16.656 C69.102,16.656 68.436,16.116 67.752,15.036 C67.482,14.64 67.248,14.19 67.032,13.686 C66.042,14.946 64.908,15.918 63.648,16.602 L62.622,15.288 C64.134,14.514 65.412,13.38 66.42,11.886 C66.24,11.31 66.096,10.68 65.952,10.032 C65.628,8.538 65.412,6.666 65.304,4.416 L61.704,4.416 L61.704,6.648 L64.746,6.648 C64.746,9.996 64.602,12.03 64.314,12.768 C64.026,13.488 63.522,13.848 62.802,13.884 L61.596,13.884 L61.182,12.498 L62.424,12.498 C62.748,12.462 62.964,12.174 63.054,11.67 C63.144,11.166 63.198,9.96 63.216,8.088 L61.704,8.088 Z M68.958,0.15 C69.426,0.816 69.822,1.518 70.146,2.274 L68.922,2.814 C68.544,1.986 68.148,1.266 67.716,0.636 L68.958,0.15 Z M89.244,12.012 L87.534,11.472 C87.498,12.822 87.426,13.74 87.318,14.226 C87.21,14.712 86.958,14.964 86.562,14.964 L83.862,14.964 C83.592,14.928 83.466,14.64 83.466,14.064 L83.466,8.52 L88.254,8.52 L88.254,0.87 L81.612,0.87 L81.612,2.49 L86.616,2.49 L86.616,6.864 L81.792,6.864 L81.792,14.748 C81.792,15.954 82.224,16.566 83.124,16.566 L86.85,16.566 C87.75,16.566 88.326,16.278 88.596,15.72 C88.884,15.144 89.1,13.902 89.244,12.012 Z M72.81,0.852 L81.126,0.852 L81.126,2.472 L78.948,2.472 L78.948,4.182 L80.892,4.182 L80.892,16.782 L79.38,16.782 L79.38,15.918 L74.7,15.918 L74.7,16.782 L73.188,16.782 L73.188,4.182 L75.096,4.182 L75.096,2.472 L72.81,2.472 L72.81,0.852 Z M74.7,14.316 L79.38,14.316 L79.38,12.894 L74.7,12.894 L74.7,14.316 Z M75.456,5.73 L74.7,5.73 L74.7,9.978 C75.186,9.222 75.438,8.142 75.456,6.72 L75.456,5.73 Z M74.7,10.266 L74.7,11.346 L79.38,11.346 L79.38,10.122 L78.696,10.122 C77.85,10.122 77.436,9.672 77.436,8.808 L77.436,5.73 L76.572,5.73 L76.572,6.72 C76.554,8.646 76.176,10.05 75.456,10.95 L74.7,10.266 Z M76.554,4.182 L77.49,4.182 L77.49,2.472 L76.554,2.472 L76.554,4.182 Z M79.38,8.826 L79.38,5.73 L78.57,5.73 L78.57,8.466 C78.57,8.7 78.714,8.826 79.02,8.826 L79.38,8.826 Z M93.366,2.922 C92.988,3.462 92.592,3.912 92.178,4.29 L94.77,4.29 C94.842,3.84 94.896,3.39 94.932,2.922 L93.366,2.922 Z M94.302,5.856 L90.954,5.856 L90.954,4.29 L91.764,4.29 L90.918,3.228 C91.746,2.49 92.484,1.446 93.096,0.078 L94.626,0.402 C94.5,0.762 94.356,1.086 94.212,1.41 L99.144,1.41 L99.144,2.922 L96.57,2.922 C96.534,3.408 96.498,3.858 96.426,4.29 L99.648,4.29 L99.648,5.856 L96.066,5.856 C96.03,5.946 96.012,6.036 95.994,6.108 C97.326,6.792 98.442,7.476 99.378,8.16 L98.316,9.24 L105.192,9.24 L105.192,16.89 L103.464,16.89 L103.464,16.188 L94.968,16.188 L94.968,16.89 L93.258,16.89 L93.258,9.492 C92.79,9.78 92.304,10.068 91.764,10.32 L90.612,8.934 C92.484,8.106 93.69,7.116 94.266,5.928 L94.302,5.856 Z M94.968,14.676 L103.464,14.676 L103.464,13.488 L94.968,13.488 L94.968,14.676 Z M94.968,12.012 L103.464,12.012 L103.464,10.752 L94.968,10.752 L94.968,12.012 Z M93.618,9.24 L98.01,9.24 C97.326,8.628 96.48,7.998 95.436,7.35 C95.004,8.034 94.392,8.664 93.618,9.24 Z M100.206,1.428 L106.506,1.428 L106.506,8.232 L100.206,8.232 L100.206,1.428 Z M104.832,6.738 L104.832,2.94 L101.88,2.94 L101.88,6.738 L104.832,6.738 Z M123.192,12.3 L117.252,12.3 C117.954,12.894 118.512,13.416 118.908,13.866 L117.738,14.694 C117.27,14.136 116.658,13.524 115.884,12.858 L116.784,12.3 L110.34,12.3 L110.34,11.076 L121.536,11.076 L121.536,10.266 L111.132,10.266 L111.132,9.114 L121.536,9.114 L121.536,8.322 L110.556,8.322 L110.556,7.098 L112.518,7.098 L112.518,6.288 L109.44,6.288 L109.44,5.1 L112.518,5.1 L112.518,4.326 L110.106,4.326 L110.106,3.138 L112.518,3.138 L112.518,2.382 L109.764,2.382 L109.764,1.194 L112.518,1.194 L112.518,0.33 L114.192,0.33 L114.192,1.194 L116.64,1.194 L116.64,2.382 L114.192,2.382 L114.192,3.138 L116.388,3.138 L116.388,4.326 L114.192,4.326 L114.192,5.1 L116.64,5.1 L116.64,6.288 L114.192,6.288 L114.192,7.098 L119.88,7.098 L119.88,6.288 L117.198,6.288 L117.198,5.1 L119.88,5.1 L119.88,4.326 L117.576,4.326 L117.576,3.138 L119.88,3.138 L119.88,2.382 L117.288,2.382 L117.288,1.194 L119.88,1.194 L119.88,0.33 L121.536,0.33 L121.536,1.194 L124.272,1.194 L124.272,2.382 L121.536,2.382 L121.536,3.138 L123.894,3.138 L123.894,4.326 L121.536,4.326 L121.536,5.1 L124.524,5.1 L124.524,6.288 L121.536,6.288 L121.536,7.098 L123.192,7.098 L123.192,12.3 Z M110.43,12.93 L111.924,13.254 C111.528,14.532 111.006,15.63 110.34,16.566 L108.99,15.702 C109.656,14.838 110.142,13.92 110.43,12.93 Z M119.502,16.53 L114.66,16.53 C113.472,16.53 112.896,15.99 112.896,14.946 L112.896,12.876 L114.534,12.876 L114.534,14.586 C114.534,14.91 114.714,15.072 115.11,15.072 L119.178,15.072 C119.484,15.072 119.7,15 119.826,14.874 C120.006,14.694 120.114,14.208 120.186,13.38 L121.734,13.884 C121.59,15.162 121.356,15.936 121.014,16.188 C120.672,16.404 120.168,16.53 119.502,16.53 Z M123.084,12.624 C124.074,13.686 124.848,14.622 125.388,15.414 L124.128,16.278 C123.57,15.414 122.814,14.442 121.86,13.38 L123.084,12.624 Z M127.026,4.83 L127.026,6.486 L133.632,6.486 C132.678,10.698 130.338,13.722 126.63,15.522 L127.728,16.962 C131.382,15.036 133.812,12.012 135,7.89 C136.368,11.706 138.798,14.676 142.254,16.8 L143.316,15.414 C139.752,13.308 137.322,10.338 136.062,6.486 L142.938,6.486 L142.938,4.83 L135.63,4.83 C135.774,3.75 135.846,2.616 135.846,1.428 L135.846,0.258 L134.118,0.258 L134.118,1.824 C134.1,2.868 134.028,3.876 133.92,4.83 L127.026,4.83 Z M147.312,6.72 L147.312,9.348 L149.184,9.348 L149.184,6.72 L147.312,6.72 Z M149.184,5.136 L149.184,2.472 L147.312,2.472 L147.312,5.136 L149.184,5.136 Z M147.258,10.968 C147.114,13.38 146.682,15.378 145.926,16.962 L144.558,15.72 C145.278,14.154 145.638,12.156 145.656,9.726 L145.656,0.798 L150.876,0.798 L150.876,15.126 C150.876,16.242 150.282,16.8 149.112,16.8 L147.888,16.8 L147.42,15.162 C147.852,15.216 148.248,15.252 148.608,15.252 C148.986,15.252 149.184,15 149.184,14.532 L149.184,10.968 L147.258,10.968 Z M155.034,4.542 C155.574,5.55 156.078,6.522 156.528,7.44 C156.852,6.468 157.104,5.442 157.302,4.362 L158.796,4.596 C158.472,6.378 158.022,7.98 157.464,9.384 C158.004,10.554 158.472,11.652 158.868,12.66 L157.608,13.542 C157.32,12.768 156.996,11.976 156.636,11.184 C156.078,12.192 155.448,13.074 154.764,13.866 L153.72,12.57 C154.548,11.634 155.232,10.554 155.79,9.33 C155.178,8.052 154.512,6.72 153.774,5.334 L155.034,4.542 Z M156.6,0.24 L154.89,0.528 C155.07,1.032 155.25,1.608 155.412,2.22 L151.542,2.22 L151.542,3.858 L161.226,3.858 L161.226,2.22 L157.158,2.22 C156.978,1.5 156.798,0.834 156.6,0.24 Z M153.576,15.972 L153.576,16.728 L151.974,16.728 L151.974,5.73 L153.576,5.73 L153.576,14.424 L159.12,14.424 L159.12,5.676 L160.722,5.676 L160.722,16.692 L159.12,16.692 L159.12,15.972 L153.576,15.972 Z M44.5,11 C43.1192881,11 42,9.88071187 42,8.5 C42,7.11928813 43.1192881,6 44.5,6 C45.8807119,6 47,7.11928813 47,8.5 C47,9.88071187 45.8807119,11 44.5,11 Z"/>
</svg>
