<?xml version="1.0" encoding="UTF-8" standalone="no"?>
<svg width="123px" height="120px" viewBox="0 0 123 120" version="1.1" xmlns="http://www.w3.org/2000/svg" xmlns:xlink="http://www.w3.org/1999/xlink">
    <!-- Generator: Sketch 39.1 (31720) - http://www.bohemiancoding.com/sketch -->
    <title>search_noResults</title>
    <desc>Created with Sketch.</desc>
    <defs>
        <path d="M37.5757576,2.25260145 C37.5757576,1.70463292 37.9723265,1.44664818 38.4859832,1.68786486 L74.2412895,18.4788018 C74.7439933,18.7148749 75.1515152,19.3469569 75.1515152,19.8984348 L75.1515152,103.622399 C75.1515152,104.170367 74.7549462,104.428352 74.2412895,104.187135 L38.4859832,87.3961982 C37.9832795,87.1601251 37.5757576,86.5280431 37.5757576,85.9765652 L37.5757576,2.25260145 Z" id="path-1"></path>
        <mask id="mask-2" maskContentUnits="userSpaceOnUse" maskUnits="objectBoundingBox" x="0" y="0" width="37.5757576" height="102.680507" fill="white">
            <use xlink:href="#path-1"></use>
        </mask>
    </defs>
    <g id="最终页面" stroke="none" stroke-width="1" fill="none" fill-rule="evenodd">
        <g id="灰度发布系统_搜索为空_交互操作" transform="translate(-686.000000, -289.000000)">
            <g id="内容" transform="translate(213.000000, 71.000000)">
                <g id="search_noResults" transform="translate(473.000000, 218.000000)">
                    <g id="Group">
                        <g>
                            <g>
                                <path d="M0,18.7486979 L0,101.09592 C0,102.943368 1.87561121,104.188948 3.56167501,103.461203 L39.3337962,88.0210984 C40.2732841,87.6155929 40.8824242,86.6852288 40.8824242,85.655816 L40.8824242,3.30859375 C40.8824242,1.4611455 39.006813,0.215565737 37.3207492,0.943311223 L1.54862802,16.3834154 C0.609140083,16.7889209 0,17.7192853 0,18.7486979 L0,18.7486979 Z M35.7721204,7.22045114 L35.7721204,83.9059565 L5.11030318,97.202282 L5.11030318,20.4189257 L35.7721204,7.22045114 L35.7721204,7.22045114 Z" id="Shape" fill="#55B0FC"></path>
                                <use id="Rectangle-4" stroke="#979797" mask="url(#mask-2)" stroke-width="2" fill="#CCE8FE" xlink:href="#path-1"></use>
                                <path d="M75.2551191,103.391278 C74.6153117,103.719423 73.8356957,103.781824 73.0928707,103.461203 L69.8542667,102.063344 C71.5832443,102.6778 73.3897829,103.126744 75.2551191,103.391278 L75.2551191,103.391278 Z M66.486506,100.609738 L37.3207492,88.0210984 C36.3812613,87.6155929 35.7721212,86.6852288 35.7721212,85.655816 L35.7721212,3.30859375 C35.7721212,1.4611455 37.6477324,0.215565737 39.3337962,0.943311223 L75.1059172,16.3834154 C76.0454055,16.7889209 76.6545455,17.7192853 76.6545455,18.7486979 L76.6545455,47.1709523 C74.8996173,47.3302237 73.1912026,47.6519517 71.5442424,48.12109 L71.5442424,20.4189257 L40.882425,7.22045114 L40.882425,83.9059565 L55.2231033,90.1247112 C57.9346812,94.584085 61.8378775,98.2288822 66.486506,100.609738 L66.486506,100.609738 Z" id="Shape" fill="#4FAFFA"></path>
                                <path d="M71.5442424,48.12109 L71.5442424,18.7486979 C71.5442424,17.7192853 72.1533824,16.7889209 73.0928707,16.3834154 L108.864992,0.943311223 C110.551056,0.215565737 112.426667,1.4611455 112.426667,3.30859375 L112.426667,75.3624132 L107.316364,75.3624132 C107.316364,75.3601579 107.316363,75.3579026 107.316363,75.3556473 L107.316363,7.22045114 L76.6545455,20.4189257 L76.6545455,47.1709523 C74.8996173,47.3302237 73.1912031,47.6519517 71.5442424,48.12109 L71.5442424,48.12109 Z" id="Shape" fill="#4FAFFA"></path>
                                <g transform="translate(45.992727, 41.908854)">
                                    <ellipse id="Oval" stroke="#979797" fill="#FFFFFF" cx="33.1919192" cy="33.4010417" rx="29.4343434" ry="29.6197917"></ellipse>
                                    <path d="M33.2169697,66.9071181 C51.5621956,66.9071181 66.4339394,51.9294496 66.4339394,33.453559 C66.4339394,14.9776686 51.5621956,0 33.2169697,0 C14.8717439,0 0,14.9776686 0,33.453559 C0,51.9294496 14.8717439,66.9071181 33.2169697,66.9071181 L33.2169697,66.9071181 Z M33.2169697,61.7604167 C48.739853,61.7604167 61.3236364,49.0870048 61.3236364,33.453559 C61.3236364,17.8201133 48.739853,5.14670139 33.2169697,5.14670139 C17.6940863,5.14670139 5.11030303,17.8201133 5.11030303,33.453559 C5.11030303,49.0870048 17.6940863,61.7604167 33.2169697,61.7604167 L33.2169697,61.7604167 Z" id="Shape" fill="#4FAFFA"></path>
                                    <path d="M51.2142193,55.1972154 L67.9402983,72.0424267 L71.5538283,68.4031592 L54.8258528,51.5560379 C55.9330388,50.216967 56.9198271,48.7733659 57.7694773,47.2420938 L75.17809,64.7747002 C77.1678606,66.778643 77.1813216,70.0141189 75.1711287,72.0386295 L71.5500579,75.6854915 C69.5564429,77.6933062 66.3032383,77.6722412 64.3374999,75.6925023 L46.9347897,58.1658405 C48.4539648,57.3086533 49.8860185,56.3134943 51.2142193,55.1972154 L51.2142193,55.1972154 Z" id="Shape" fill="#4FAFFA"></path>
                                </g>
                            </g>
                        </g>
                    </g>
                    <text id="?" font-family="FZLTCHK--GBK1-0, FZLanTingHei-B-GBK" font-size="30" font-weight="normal" fill="#4FAFFA">
                        <tspan x="71" y="85">?</tspan>
                    </text>
                </g>
            </g>
        </g>
    </g>
</svg>